# xmcd CD database file
#
# Track frame offsets:
#	150
#	30015
#	50831
#	77591
#	96674
#	123292
#	148291
#	169258
#	198914
#	222492
#	251941
#	284134
#	308007
#
# Disc length: 4476 seconds
#
# Revision: 0
# Processed by: cddbd v1.5.2PL0 Copyright (c) Steve Scherf et al.
# Submitted via: CDex 1.70beta3
#
DISCID=c9117a0d
DTITLE=Stanley Turrentine - New Time Shuffle
DYEAR=1967
DGENRE=Jazz
TTITLE0=Return Of The Prodigal Son
TTITLE1=Ain't No Mountain High Enough
TTITLE2=New Time Shuffle
TTITLE3=Blues For Del
TTITLE4=Manhã De Carnaval
TTITLE5=Here's That Rainy Day
TTITLE6=What Now My Love
TTITLE7=Night Song
TTITLE8=Samba De Avião
TTITLE9=Ela É Carioca
TTITLE10=Pres Delight
TTITLE11=Better Luck Next Time 
TTITLE12=Bonita
EXTD=YEAR: 1967
EXTT0=
EXTT1=
EXTT2=
EXTT3=
EXTT4=
EXTT5=
EXTT6=
EXTT7=
EXTT8=
EXTT9=
EXTT10=
EXTT11=
EXTT12=
PLAYORDER=
